<?xml version="1.0" encoding="UTF-8" standalone="no"?>
<svg
   width="512"
   height="512"
   version="1.1"
   id="svg7"
   sodipodi:docname="icon.svg"
   xml:space="preserve"
   inkscape:version="1.4.4 (dcaf3e7d9e, 2026-05-05)"
   xmlns:inkscape="http://www.inkscape.org/namespaces/inkscape"
   xmlns:sodipodi="http://sodipodi.sourceforge.net/DTD/sodipodi-0.dtd"
   xmlns="http://www.w3.org/2000/svg"
   xmlns:svg="http://www.w3.org/2000/svg"><sodipodi:namedview
     id="namedview7"
     pagecolor="#ffffff"
     bordercolor="#000000"
     borderopacity="0.25"
     inkscape:showpageshadow="2"
     inkscape:pageopacity="0.0"
     inkscape:pagecheckerboard="0"
     inkscape:deskcolor="#d1d1d1"
     showguides="true"
     inkscape:zoom="1.0920891"
     inkscape:cx="439.06674"
     inkscape:cy="276.99205"
     inkscape:window-width="2560"
     inkscape:window-height="1531"
     inkscape:window-x="0"
     inkscape:window-y="0"
     inkscape:window-maximized="1"
     inkscape:current-layer="svg7" /><defs
     id="defs6"><linearGradient
       id="bs-logo-a"
       x1="76.079002"
       x2="523.47998"
       y1="10.798"
       y2="365.94501"
       gradientUnits="userSpaceOnUse"
       gradientTransform="scale(1,1.254902)"><stop
         stop-color="#9013fe"
         id="stop1" /><stop
         offset="1"
         stop-color="#6610f2"
         id="stop2" /></linearGradient><linearGradient
       id="bs-logo-b"
       x1="193.508"
       x2="293.51401"
       y1="109.74"
       y2="278.87201"
       gradientUnits="userSpaceOnUse"
       gradientTransform="translate(-617,7)"><stop
         stop-color="#fff"
         id="stop3" /><stop
         offset="1"
         stop-color="#f1e5fc"
         id="stop4" /></linearGradient><filter
       id="bs-logo-c"
       width="197"
       height="249"
       x="161.901"
       y="83.457001"
       color-interpolation-filters="sRGB"
       filterUnits="userSpaceOnUse"><feFlood
         flood-opacity="0"
         result="BackgroundImageFix"
         id="feFlood4" /><feColorMatrix
         in="SourceAlpha"
         values="0 0 0 0 0 0 0 0 0 0 0 0 0 0 0 0 0 0 127 0"
         id="feColorMatrix4" /><feOffset
         dy="4"
         id="feOffset4" /><feGaussianBlur
         stdDeviation="8"
         id="feGaussianBlur4" /><feColorMatrix
         values="0 0 0 0 0 0 0 0 0 0 0 0 0 0 0 0 0 0 0.15 0"
         id="feColorMatrix5" /><feBlend
         in2="BackgroundImageFix"
         result="effect1_dropShadow"
         id="feBlend5"
         mode="normal" /><feBlend
         in="SourceGraphic"
         in2="effect1_dropShadow"
         result="shape"
         id="feBlend6"
         mode="normal" /></filter><filter
       id="bs-logo-c-5"
       width="197"
       height="249"
       x="161.901"
       y="83.457001"
       color-interpolation-filters="sRGB"
       filterUnits="userSpaceOnUse"><feFlood
         flood-opacity="0"
         result="BackgroundImageFix"
         id="feFlood4-9" /><feColorMatrix
         in="SourceAlpha"
         values="0 0 0 0 0 0 0 0 0 0 0 0 0 0 0 0 0 0 127 0"
         id="feColorMatrix4-2" /><feOffset
         dy="4"
         id="feOffset4-2" /><feGaussianBlur
         stdDeviation="8"
         id="feGaussianBlur4-8" /><feColorMatrix
         values="0 0 0 0 0 0 0 0 0 0 0 0 0 0 0 0 0 0 0.15 0"
         id="feColorMatrix5-9" /><feBlend
         in2="BackgroundImageFix"
         result="effect1_dropShadow"
         id="feBlend5-7"
         mode="normal" /><feBlend
         in="SourceGraphic"
         in2="effect1_dropShadow"
         result="shape"
         id="feBlend6-3"
         mode="normal" /></filter></defs><rect
     style="fill:url(#bs-logo-a);stroke-width:0.6;stroke-linecap:round;stroke-linejoin:round;paint-order:stroke fill markers"
     id="rect7"
     width="512"
     height="512"
     x="0"
     y="0" /><path
     fill="url(#bs-logo-a)"
     d="M 56.480996,105.32 C 55.514996,77.58 77.127996,52 106.342,52 h 299.353 c 29.214,0 50.827,25.58 49.861,53.32 -0.928,26.647 0.277,61.165 8.964,89.31 8.715,28.232 23.411,46.077 47.48,48.37 v 26 c -24.069,2.293 -38.765,20.138 -47.48,48.37 -8.687,28.145 -9.892,62.663 -8.964,89.311 C 456.522,434.42 434.909,460 405.695,460 H 106.342 c -29.214004,0 -50.827004,-25.58 -49.860004,-53.319 0.927,-26.648 -0.278,-61.166 -8.966,-89.311 C 38.801996,289.138 24.07,271.293 0,269 v -26 c 24.069,-2.293 38.801996,-20.138 47.515996,-48.37 8.688,-28.145 9.893,-62.663 8.965,-89.31 z"
     id="path9"
     style="fill:#ffffff" /><path
     d="m 333.73084,256.37002 -16.30388,116.43097 c 0,0 -26.58241,9.74688 -50.6838,-10.63297 l 26.4052,-112.88664 -49.79772,-101.01316 c 0,0 19.67098,-8.32915 32.25333,-5.4937 l 43.77236,82.58269 75.84848,-64.50665 c 0,0 25.51912,8.86081 27.82293,17.36718 z"
     fill="#ecdfa7"
     id="path1"
     style="fill:#c69efb;fill-opacity:1;stroke-width:0.999994" /><path
     d="m 433.32627,268.00928 c -1.24051,-2.48102 -2.83546,-4.78483 -4.60762,-6.91142 -3.54432,-4.07597 -7.79751,-7.44308 -12.40512,-10.10132 -4.4304,-2.83545 -9.39246,-5.13926 -14.35451,-6.73421 l -1.94937,-0.53165 c -0.53165,-0.17721 -1.0633,-0.35443 -1.59494,-0.53165 -1.0633,-0.35443 -1.94938,-0.88608 -2.83546,-1.24051 -1.77217,-1.0633 -3.01268,-2.12659 -3.89875,-3.54432 -1.77217,-2.65824 -1.94938,-6.73421 -1.06331,-10.9874 0.17722,-1.0633 0.53166,-2.12659 0.88608,-3.18988 0.35444,-1.0633 0.70887,-2.1266 1.0633,-3.36711 0.35443,-1.59495 0.53165,-3.18989 0.53165,-5.13927 l 0.88608,-0.70886 10.63297,-8.86081 c 1.94938,-1.59494 3.89875,-3.3671 5.84813,-4.96205 0.70886,0.35444 1.41773,0.88608 1.94938,1.24052 0,0 5.49369,0.53165 8.50636,-7.79751 l -1.59494,-1.0633 1.06329,-0.88608 2.65825,-2.30381 c 0.88608,-0.70886 1.59494,-1.59494 1.94937,-3.18989 -1.59494,-0.17721 -2.65824,0.35444 -3.54431,1.0633 l -2.83546,2.12659 -1.94938,1.41773 -24.45582,-16.83552 c 1.24051,-1.0633 2.30381,-1.94938 3.54432,-3.01268 l 5.13927,-4.60762 c 0.17721,-0.17721 0.35443,-0.35443 0.53165,-0.53164 0.53164,0.35443 0.88608,0.70886 1.41773,1.06329 1.24051,0.88608 2.65823,1.77216 3.89875,2.48103 l 7.7975,4.25318 c 2.48103,1.41773 5.13927,2.83546 7.79751,4.07597 1.24052,0.70887 2.65824,1.24052 4.07597,1.77216 0.70886,0.17722 1.41773,0.53165 2.12659,0.70887 0.35444,0 0.88608,0.17721 1.24052,0.17721 h 0.88608 c 0.35443,0 0.70886,-0.17721 1.0633,-0.70886 v -0.17722 c 0,-0.17721 0,-0.35443 0.17721,-0.53164 v -0.70887 c 0,-0.35443 -0.17721,-0.53165 -0.35443,-0.70886 -0.17722,-0.35443 -0.53165,-0.70887 -0.70887,-1.0633 -0.53164,-0.53165 -1.06329,-1.24051 -1.59494,-1.59494 -1.06329,-1.0633 -2.30381,-1.94938 -3.3671,-2.83546 -2.30381,-1.77216 -4.78484,-3.36711 -7.26586,-4.96205 -2.48103,-1.59495 -4.96206,-3.01267 -7.62029,-4.25319 -1.24052,-0.70886 -2.65825,-1.24051 -4.07598,-1.77216 -0.70886,-0.17721 -1.41773,-0.53165 -2.3038,-0.70886 -0.35443,0 -0.88608,-0.17722 -1.41773,-0.17722 -0.35443,0 -0.53165,0 -1.0633,0.17722 -0.35443,0.17721 -0.88608,0.35443 -1.41773,0.88608 -1.24051,0.53165 -2.3038,1.06329 -3.18989,1.77216 l -5.31648,3.01267 c -1.59495,1.24051 -3.3671,2.65824 -4.96205,3.89876 l -1.77216,-1.24052 c 0,0 -7.44308,0.70887 -4.96205,5.4937 0,0 0.17722,0.17722 0.70887,0.70887 -7.08865,5.84813 -14.00007,11.87347 -20.91151,17.7216 -7.08863,6.02535 -14.00006,12.0507 -21.0887,18.25326 l -10.45575,9.21523 c -0.53165,0.53165 -1.0633,1.0633 -1.77216,1.59495 -0.35444,-1.0633 -0.88609,-1.94938 -1.24052,-2.83546 l -2.48102,-5.31648 -4.78484,-10.63296 c -3.18988,-7.08865 -6.37977,-14.17729 -9.74688,-21.26593 l -9.9241,-21.08872 c -0.53165,-1.06329 -1.0633,-2.12659 -1.59494,-3.18988 h 2.12659 c 0,0 0.70886,-5.84814 -3.54432,-6.91143 0,0 -0.70887,0 -1.77216,0.17721 -1.59495,-3.18989 -3.01268,-6.37977 -4.60762,-9.56966 l -0.70887,-2.65824 c -0.17721,-0.88609 -0.70886,-1.24052 -1.06329,-1.59495 -0.35443,-0.17722 -0.70887,-0.35443 -0.88608,-0.35443 -0.53165,-0.17722 -0.88608,-0.17722 -1.41773,-0.35443 -0.88608,-0.17722 -1.59495,-0.17722 -2.30381,-0.17722 -1.59494,0 -3.01267,0.17722 -4.4304,0.35443 -2.83546,0.35443 -5.84813,0.88608 -8.68359,1.59495 -2.83546,0.70886 -5.67091,1.41773 -8.50637,2.30381 -1.41773,0.53164 -2.83546,0.88608 -4.07597,1.59494 -0.70886,0.35443 -1.41773,0.70886 -2.12659,1.0633 -0.35444,0.17721 -0.70887,0.53165 -1.0633,0.70886 -0.17722,0.17722 -0.35443,0.35443 -0.53165,0.53165 -0.17721,0.17722 -0.17721,0.35443 -0.35443,0.53165 v 0.53165 0.17721 c 0.17722,0.70887 0.53165,0.88608 0.88608,1.0633 0.35443,0.17721 0.53165,0.35443 0.70886,0.35443 0.53165,0.17722 0.88609,0.17722 1.24052,0.35443 0.70886,0.17722 1.59494,0.17722 2.30381,0.17722 1.41772,0 3.01267,-0.17722 4.4304,-0.35443 2.83546,-0.35444 5.84813,-0.70887 8.68359,-1.24052 l 8.68358,-1.41772 c 1.41773,-0.17722 2.83546,-0.53165 4.43041,-0.88608 1.24051,2.48102 2.48102,5.13926 3.72153,7.62029 -8.15194,0.70886 -20.91149,1.77216 -28.88622,2.65824 -0.88608,-1.59495 -1.59494,-3.01268 -2.48102,-4.60762 -0.17722,-0.35443 -0.70887,-0.70886 -1.24051,-0.53165 -0.53165,0.17722 -0.70887,0.70887 -0.53165,1.24051 0.53165,1.41773 1.06329,2.65824 1.59494,4.07597 -2.48102,0.35444 -4.07597,0.70887 -4.25318,1.0633 -0.88608,1.59494 1.77216,9.9241 5.31648,12.05069 0,0 1.41773,-0.53165 3.89875,-1.06329 1.24051,2.83545 2.48103,5.67091 3.72154,8.50637 l 10.63296,24.10138 10.81018,24.10139 c 3.54432,7.97472 7.26586,15.94945 10.9874,24.10138 3.72154,8.15194 0,0.17722 0.17722,0.17722 -0.53165,1.77216 -1.0633,3.54432 -1.59495,5.31648 -1.41773,4.96205 -2.83546,9.92411 -4.25318,14.88615 -2.65824,9.9241 -5.13927,20.02542 -7.62029,29.94952 l -3.72154,15.06337 -3.54432,15.06336 c -2.48103,10.10132 -4.78484,20.02542 -7.6203,29.94952 0,0.17722 0,0.53164 0.17722,0.70887 1.41773,1.94937 3.36711,3.3671 5.13927,4.78483 1.94937,1.41773 3.89875,2.48102 5.84813,3.54432 4.07597,2.12659 8.32915,3.72154 12.75955,5.13927 4.43041,1.2405 9.03802,2.12659 13.82286,2.3038 2.30381,0.17722 4.78483,0 7.08864,-0.35443 2.30381,-0.35443 4.60762,-0.70887 7.08864,-1.41772 0.70887,-0.17723 1.24052,-0.88609 1.41773,-1.59495 v -0.17722 c 1.94938,-9.74688 3.54432,-19.67098 5.31648,-29.41786 l 4.96205,-29.59509 c 1.59495,-9.9241 3.36711,-19.67099 4.96206,-29.59508 0.17721,-1.0633 0.35442,-2.30381 0.53165,-3.36711 0.35443,0.35443 0.53164,0.88608 0.88608,1.24051 1.77215,2.1266 3.89875,3.89875 6.02534,5.4937 4.25319,3.01267 8.86081,5.31649 13.46842,7.08864 4.60762,1.77216 9.39246,3.18989 14.17729,4.25319 3.18988,0.70887 6.20256,1.24051 9.39245,1.59495 -1.41773,3.18988 -2.30381,6.55699 -2.12659,10.27853 0,0.35443 0.17721,0.70886 0.53165,0.88608 h 0.17721 c 3.3671,1.77216 6.91143,3.18989 10.81018,4.07596 3.72154,0.70887 7.79751,1.06331 11.69626,0.53165 4.07597,-0.53165 8.15194,-2.12659 11.34183,-4.78483 3.18989,-2.65824 5.4937,-6.20256 6.91143,-9.9241 l 0.17721,-0.17721 v -0.17722 c 0.17722,-1.59494 0.35443,-3.18989 0.53165,-4.78484 v -0.17721 c 1.77216,-1.06329 3.54432,-2.1266 5.31649,-3.54432 2.12659,-1.77216 4.07596,-3.72154 5.49369,-6.20256 1.41773,-2.48103 2.30381,-5.4937 2.12659,-8.50637 -0.17721,-2.83546 -1.24051,-5.67092 -2.48102,-8.15195 z m -3.36711,-89.3169 c 0,0 0,0.17722 0,0 z m -12.58234,-9.39245 c 2.48103,1.41773 4.78484,2.83546 7.08865,4.60762 1.06329,0.88608 2.30381,1.59494 3.3671,2.65824 0.53165,0.53165 1.0633,0.88608 1.41773,1.41773 0.17721,0.17722 0.17721,0.17722 0.35443,0.35443 h -0.35443 c -0.70887,-0.17721 -1.24051,-0.35443 -1.94937,-0.53165 -1.24052,-0.53165 -2.65825,-1.06329 -3.89876,-1.59494 -2.48103,-1.24051 -5.13927,-2.48103 -7.44308,-4.07597 -2.30381,-1.59495 -4.60761,-3.36711 -6.55699,-5.31648 -0.70886,-0.70887 -1.41773,-1.41773 -1.94938,-2.1266 0.88608,0.35444 1.77216,0.70887 2.65824,1.0633 2.30382,0.88608 4.78484,2.12659 7.26586,3.54432 z m -12.05069,-7.79751 c 0,0 0,0 0.17721,0.17722 v 0.17722 0.17721 c 0,0 0,-0.17721 -0.17721,-0.17721 z m -126.35506,-19.8482 c -2.48102,1.24052 -5.31648,2.1266 -7.97472,2.83546 -2.83546,0.70887 -5.4937,1.24051 -8.32916,1.41773 -1.41773,0.17722 -2.83546,0.17722 -4.25318,0.17722 -0.70887,0 -1.41773,0 -1.94938,-0.17722 h -0.53165 c 0.17722,0 0.17722,-0.17722 0.35443,-0.17722 0.53165,-0.35443 1.24052,-0.53164 1.77216,-0.88608 1.24052,-0.53164 2.65825,-0.88608 3.89876,-1.41773 2.65824,-0.70886 5.4937,-1.41772 8.32915,-1.94937 2.83546,-0.53165 5.67092,-0.88608 8.32916,-1.0633 0.88608,0 1.77216,0 2.65824,-0.17721 -0.53165,0.53164 -1.41773,0.88608 -2.30381,1.41772 z m 122.98795,60.43068 -10.98739,8.50638 -10.9874,8.68358 c -3.01267,2.48103 -6.02534,4.96206 -9.03802,7.26587 0.17722,-0.17722 0.35443,-0.53166 0.53165,-0.70887 1.41773,-1.94938 2.83546,-3.72154 4.25319,-5.4937 3.01267,-3.54432 5.84813,-7.26586 9.03801,-10.63296 3.1899,-3.36711 6.557,-6.73421 9.92411,-9.74689 1.77216,-1.59494 3.54432,-3.01267 5.49369,-4.25318 0.53165,-0.35444 1.0633,-0.70887 1.59495,-1.0633 1.59494,1.24051 3.36711,2.48102 4.96205,3.72154 -1.41773,1.24051 -3.18989,2.48102 -4.78484,3.72153 z m -129.89938,-21.79757 0.88608,0.88608 c 1.77216,1.77216 3.54433,3.54432 4.96205,5.4937 1.41773,1.94937 2.65825,4.07597 3.18989,6.20256 0.35444,1.77216 0.35444,3.72154 -0.53164,5.31648 l -0.17722,-0.53165 z m 8.68359,18.43047 c 0.53165,-0.53165 0.88608,-1.24051 1.24051,-2.12659 0.53165,-1.24052 0.53165,-2.65824 0.35444,-3.89876 -0.35444,-2.65824 -1.59495,-5.13926 -3.18989,-7.08864 -2.30381,-3.01267 -5.13927,-5.4937 -8.32916,-7.62029 l -1.94938,-4.07597 c -1.24051,-2.65824 -2.48102,-5.31648 -3.89875,-7.79751 2.65824,-0.70886 5.84813,-1.77216 9.39245,-2.65824 3.18989,5.13927 6.02535,10.45575 8.68359,15.94945 3.01267,6.91142 6.02535,14.17728 6.557,21.62036 0.17721,1.77216 0,3.72154 0,5.67091 0,1.94938 0,3.89876 0.17721,5.84813 0.17722,2.65824 0.70886,5.4937 1.24051,8.15194 z m 41.823,144.4311 c -0.53165,0.70887 -0.88609,1.24051 -1.59495,1.77216 -0.88608,0.70886 -1.77216,1.06329 -2.83546,0.88608 -0.88608,-0.17722 -1.59494,-1.0633 -1.94937,-1.94937 -0.35444,-0.88609 -0.70887,-1.94938 -0.70887,-3.01268 -0.17721,-2.12659 -0.17721,-4.25318 0.35443,-6.37978 0.35444,-2.12659 1.0633,-4.07597 1.94938,-6.02534 0.53165,-0.88608 1.0633,-1.77217 1.77216,-2.48103 0.70886,-0.70886 1.59495,-1.24051 2.48103,-1.0633 0.88608,0 1.77215,0.88608 2.30381,1.77216 0.35442,0.53165 0.53165,1.0633 0.70886,1.59495 l -2.12659,12.58234 c -0.17722,0.88608 -0.17722,1.59495 -0.35443,2.30381 z m 10.45575,-61.13955 c -1.06331,6.20257 -2.1266,12.40513 -3.1899,18.60769 -0.17721,-1.24051 -0.53164,-2.48102 -0.88608,-3.72154 -0.88608,-3.3671 -1.94937,-6.55699 -3.01267,-9.74688 -2.30381,-6.37978 -4.96205,-12.58234 -8.15194,-18.43048 1.94938,6.557 4.25319,12.75957 6.557,19.13934 1.24051,3.18989 2.3038,6.37978 3.3671,9.39246 0.53165,1.59494 1.0633,3.18988 1.59495,4.78483 0,0.17722 0.17721,0.53165 0.17721,0.70886 -0.53165,2.83546 -1.0633,5.67092 -1.41773,8.68359 l -2.65824,16.12667 c -0.17722,-0.35444 -0.17722,-0.70887 -0.35443,-1.0633 -0.53165,-1.0633 -1.24052,-2.1266 -2.65824,-2.48103 -1.24051,-0.35443 -2.48103,0.35443 -3.54432,1.0633 -0.88608,0.70886 -1.59495,1.77216 -2.30381,2.65824 -1.24051,1.94937 -1.94938,4.25319 -2.30381,6.37978 -0.35443,2.30381 -0.53165,4.60762 0,6.91143 0.17721,1.06329 0.53165,2.30381 1.24051,3.3671 0.53165,1.0633 1.59495,2.12659 2.83546,2.30381 1.24051,0.17722 2.48102,-0.53165 3.18989,-1.41773 0.35443,-0.35443 0.70886,-0.88608 1.0633,-1.24051 -1.24052,8.32915 -2.65825,16.65831 -3.89876,25.16468 -1.59494,0.53165 -3.18989,0.88608 -4.78483,1.0633 -2.1266,0.35443 -4.25319,0.53165 -6.37978,0.70886 -4.4304,0.17722 -8.68359,-0.17721 -13.11399,-1.24051 -4.25319,-0.88608 -8.68359,-2.30381 -12.75956,-4.07597 -3.89875,-1.77216 -7.62029,-4.07597 -10.45575,-7.26586 2.65824,-9.74688 5.67092,-19.49377 8.68359,-29.24065 l 4.60762,-14.70894 4.4304,-14.88614 c 3.01267,-9.9241 6.02535,-19.84821 8.8608,-29.7723 1.41773,-4.96206 2.65825,-9.92411 4.07597,-14.88615 1.0633,-5.13927 3.18989,-9.92411 1.59495,-15.59502 v -0.17721 c -0.17722,-0.17723 -0.35443,-0.17723 -0.35443,0 -0.88608,0.88608 -1.41773,1.59494 -2.1266,2.48102 -1.94937,-4.4304 -4.07597,-8.68359 -6.02534,-13.11399 -0.53165,-1.59495 -1.0633,-3.18989 -1.41773,-4.96205 -0.88608,-3.72154 -1.59495,-7.44307 -1.77216,-11.16461 -0.17722,-1.94938 -0.17722,-3.72154 -0.17722,-5.67092 0,-1.94937 0.17722,-3.89875 0,-5.84813 -0.70886,-7.79751 -3.72154,-15.24058 -7.08864,-22.15201 -2.65824,-5.4937 -5.84813,-10.63296 -9.39245,-15.59501 5.84813,-1.59495 12.05069,-3.18989 17.01274,-4.07597 0.70886,1.59494 1.59494,3.01267 2.30381,4.60762 l 10.63296,20.91149 c 3.54432,6.91143 7.08865,13.82286 10.63297,20.73428 l 5.31648,10.27854 2.65824,5.13926 c 0.70887,1.0633 1.06329,2.30381 1.77216,3.18989 -2.30381,2.12659 -4.60762,4.25319 -6.91143,6.37978 -0.17721,0.17722 -0.35443,0.53165 0,0.88608 0.17722,0.35443 0.70887,0.35443 0.88608,0.17722 3.72154,-2.65824 7.44308,-5.4937 11.16462,-8.32916 l 11.16461,-8.50637 c 7.44307,-5.67091 14.70893,-11.34183 21.97479,-17.01274 7.26586,-5.67092 14.53172,-11.51905 21.79758,-17.36718 l 0.17721,-0.17721 c 3.89876,3.72153 9.74689,9.21523 15.94945,14.00007 -2.65824,1.41772 -5.13926,2.83545 -7.44307,4.60761 -3.72154,2.83546 -7.26586,6.02535 -10.45575,9.56967 -3.18989,3.54432 -6.20256,7.08864 -8.8608,10.9874 -1.94938,2.65824 -3.72154,5.4937 -5.4937,8.50637 -10.81018,8.8608 -21.44315,17.89882 -31.72168,27.29128 -0.35443,0.35442 -0.35443,0.88607 -0.17721,1.2405 0.35443,0.35444 0.88608,0.53165 1.2405,0.35444 -1.2405,3.54432 -1.94937,7.08865 -2.65823,10.63296 -1.0633,4.96205 -2.1266,9.92411 -3.01267,14.88615 z m 78.3295,23.74695 c -2.48103,1.94938 -5.4937,3.1899 -8.68359,3.89876 -3.18989,0.70886 -6.73421,0.70886 -10.10132,0.35443 -3.18988,-0.35443 -6.55699,-0.88608 -9.74688,-1.77216 -0.35443,-2.83545 0.17722,-6.02534 1.41773,-8.8608 1.24051,0.17722 2.30381,0.17722 3.54432,0.35443 0.53165,0 0.88608,-0.17721 1.0633,-0.70887 0.17721,-0.53164 0,-1.2405 -0.70887,-1.41772 -0.88608,-0.35443 -1.59494,-0.53165 -2.48103,-0.88608 0.70887,-1.24051 1.59495,-2.30381 2.48103,-3.3671 1.0633,-1.06331 2.1266,-2.1266 3.18989,-3.01268 2.30381,1.41773 4.60762,2.48102 7.26586,3.3671 3.01267,0.88608 6.20256,1.24052 9.56967,0.88608 3.18989,-0.35443 6.55699,-1.94937 8.68358,-4.60761 1.94938,-2.30381 2.83546,-4.96206 3.01268,-7.79751 0.35443,1.0633 0.35443,2.30381 0.17722,3.3671 -0.17722,1.41773 -0.35444,3.01268 -0.70887,4.43041 -0.17721,0.88608 -0.35443,1.77216 -0.53165,2.65824 -0.88608,0.53164 -1.77216,1.06329 -2.65824,1.59494 -1.0633,0.70887 -1.94938,1.41773 -2.83545,3.01268 1.59494,0.53165 2.83545,0.35443 4.07596,0 0.17722,0 0.17722,-0.17722 0.35444,-0.17722 -0.17722,0.53165 -0.17722,0.88608 -0.35444,1.41773 -1.41773,2.83545 -3.54432,5.31648 -6.02534,7.26585 z m 17.54439,-23.2153 c -0.88608,1.94938 -2.30381,3.72154 -3.89876,5.31648 -0.70886,0.70887 -1.59494,1.41773 -2.30381,1.94938 0,-1.59494 -0.17721,-3.18989 -0.53164,-4.78484 -0.17722,-0.88608 -0.35444,-1.59494 -0.70886,-2.48102 -0.35444,-0.70886 -0.70887,-1.59494 -1.59495,-2.12659 -0.17722,0 -0.35443,0 -0.35443,0.17721 -1.0633,2.65825 -2.83546,4.96205 -4.78484,6.557 -1.94937,1.59494 -4.4304,2.30381 -6.91143,2.48103 -2.48102,0.17721 -5.13926,-0.35444 -7.7975,-1.0633 -2.65824,-0.70887 -5.31648,-1.59495 -7.97473,-2.48103 l -0.35442,-0.17721 c -0.53165,-0.17722 -1.24052,0 -1.59496,0.35443 -1.41772,1.77216 -2.48102,3.36711 -3.72153,5.13927 -0.88608,1.41772 -1.59495,2.65824 -2.30381,4.07596 -3.18989,-1.24051 -6.20256,-2.30381 -9.39245,-3.54431 -4.4304,-1.77217 -8.8608,-3.54433 -12.93678,-5.67092 -4.25318,-1.94938 -8.32915,-4.25319 -11.87347,-6.91143 -3.54432,-2.65824 -6.73421,-5.4937 -8.32916,-9.03801 v -0.17723 c -0.35443,-0.70886 -0.88608,-1.2405 -1.59494,-1.59494 0,-0.35443 0.17721,-0.88608 0.17721,-1.24051 0.53165,-4.25318 1.24052,-8.50637 0.88608,-12.93677 14.35451,-10.10132 28.35458,-20.73429 42.17743,-31.72168 -0.17721,0.53165 -0.35443,1.0633 -0.53165,1.59495 -0.88608,2.65823 -1.24051,5.67091 -1.24051,8.68358 0.17722,3.01267 1.0633,6.37978 3.01267,9.21524 1.94938,2.83545 4.60762,4.96204 7.26587,6.20256 1.41772,0.70886 2.83545,1.24051 4.07596,1.59494 0.70887,0.17722 1.41773,0.35444 2.1266,0.53165 l 1.77215,0.35443 c 4.60763,1.24052 9.03803,3.01267 13.114,5.31648 4.07596,2.30382 7.97472,5.13927 11.16461,8.32916 3.18988,3.18989 5.67091,7.26586 6.02534,11.34183 0.17722,2.83546 -0.17721,4.96205 -1.06329,6.73421 z"
     id="path2"
     style="fill:#4f06b0;fill-opacity:1;stroke-width:0.999994" /><path
     d="m 311.2244,323.3007 c -1.41773,1.94938 -2.48103,4.25319 -3.01268,6.557 -0.35443,1.2405 -0.53165,2.48102 -0.53165,3.54431 l -0.17721,3.54432 c -0.35443,4.60762 -0.17722,9.56967 1.24051,14.17729 1.41773,4.60762 3.36711,8.8608 5.67092,12.93678 -0.70887,-2.30381 -1.59495,-4.43041 -2.30381,-6.557 -0.70887,-2.12659 -1.41773,-4.4304 -1.94938,-6.73421 -1.0633,-4.4304 -1.0633,-9.03802 -0.88608,-13.64564 l 0.17722,-3.54432 c 0,-1.0633 0.17721,-2.30381 0.35443,-3.36711 0.53165,-2.12659 1.41773,-4.25318 2.48102,-6.20256 1.24052,-1.94938 2.65824,-3.72153 4.4304,-5.31648 1.59495,-1.59494 3.54433,-3.01267 5.67092,-4.07597 -4.4304,1.77216 -8.50637,4.60762 -11.16461,8.68359 z"
     id="path3"
     style="fill:#4f06b0;stroke-width:0.999994;fill-opacity:1" /><path
     style="font-size:324.949px;line-height:15.854px;font-family:Roboto;-inkscape-font-specification:Roboto;letter-spacing:0px;white-space:pre;fill:#c69efb;fill-opacity:1;stroke:none;stroke-width:11.3;stroke-linecap:round;stroke-linejoin:round;stroke-dasharray:none;stroke-opacity:1;paint-order:stroke fill markers"
     d="M 158.51816,267.07872 H 99.970216 l -0.31733,-24.59331 h 53.153274 q 13.16933,0 23.00664,-4.44266 9.83733,-4.44266 15.23199,-12.69332 5.55334,-8.40933 5.55334,-19.99198 0,-12.69332 -4.91868,-20.62665 -4.75998,-8.09199 -14.75597,-11.74132 -9.83733,-3.808 -25.06932,-3.808 H 106.79288 V 375.13061 H 76.170239 V 144.11218 h 75.683921 q 17.77065,0 31.7333,3.64933 13.96267,3.49066 23.64132,11.10665 9.83733,7.45733 14.91465,19.03998 5.07732,11.58266 5.07732,27.76664 0,14.27999 -7.29866,25.86264 -7.29866,11.42399 -20.30931,18.72265 -12.85199,7.29866 -30.14664,9.36132 z m -1.428,108.05189 H 87.911566 l 17.294654,-24.91064 h 51.88394 q 14.59733,0 24.75198,-5.07733 10.31331,-5.07733 15.70799,-14.27999 5.39465,-9.36132 5.39465,-22.05464 0,-12.85199 -4.60133,-22.21331 -4.60132,-9.36132 -14.43865,-14.43865 -9.83733,-5.07733 -25.38664,-5.07733 h -43.63328 l 0.31733,-24.59331 h 59.6586 l 6.50533,8.88532 q 16.65999,1.428 28.24264,9.52 11.58265,7.93332 17.61197,20.30931 6.188,12.37599 6.188,27.29064 0,21.57864 -9.51999,36.49329 -9.36133,14.75599 -26.49731,22.53065 -17.13598,7.61599 -40.30129,7.61599 z"
     id="text9"
     aria-label="B" /><path
     style="font-size:324.949px;line-height:15.854px;font-family:Roboto;-inkscape-font-specification:Roboto;letter-spacing:0px;baseline-shift:baseline;white-space:pre;display:inline;overflow:visible;opacity:1;vector-effect:none;fill:#4f06b0;stroke-linecap:round;stroke-linejoin:round;paint-order:stroke fill markers;enable-background:accumulate;stop-color:#000000;stop-opacity:1"
     d="m 83.8125,136.97266 c -10.170636,72.66965 -2.300781,157.71287 -2.300781,233.31836 -3.04e-4,1.27081 1.029969,2.30108 2.300781,2.30078 h 11.740234 18.880856 50.29883 c 15.69572,0 29.45903,-2.58292 41.23438,-7.81641 0.005,-0.002 0.0104,-0.004 0.0156,-0.006 11.77897,-5.34416 21.00523,-13.17354 27.48828,-23.39258 6.61508,-10.36609 9.88086,-23.00482 9.88086,-37.72656 0,-10.25985 -2.14242,-19.73444 -6.43164,-28.31445 -4.18716,-8.58685 -10.34468,-15.68165 -18.36328,-21.17578 -3.55836,-2.48479 -7.57218,-4.35056 -11.79297,-5.92774 0.52831,-0.28157 1.09704,-0.51247 1.61524,-0.80664 l 0.008,-0.004 c 8.95653,-5.02587 16.03665,-11.53723 21.11523,-19.48632 0.003,-0.004 0.005,-0.008 0.008,-0.0117 5.09323,-8.08272 7.65234,-17.17829 7.65234,-27.08985 0,-11.02967 -1.72842,-20.60486 -5.27149,-28.6875 -3.52873,-8.04993 -8.76088,-14.7381 -15.61718,-19.93945 -6.73174,-5.2923 -14.91324,-9.11937 -24.46289,-11.50976 l -0.0156,-0.004 c -9.53544,-2.49054 -20.30054,-3.7207 -32.29883,-3.7207 z m 0,0 75.68359,4.59961 c 11.668,0.70911 22.07272,1.20359 31.15039,3.57617 0.008,0.002 0.0156,0.004 0.0234,0.006 9.04815,2.26203 16.61531,5.83129 22.7793,10.68164 0.011,0.009 0.0221,0.017 0.0332,0.0254 6.25302,4.74019 10.95678,10.74295 14.19531,18.13086 3.2267,7.36092 4.88282,16.29283 4.88282,26.84179 0,9.12379 -2.30195,17.26908 -6.93555,24.62696 -4.65138,7.27955 -11.10965,13.24852 -19.49609,17.95312 -0.004,0.002 -0.008,0.004 -0.0117,0.006 -1.95238,1.10875 -3.98688,2.12511 -6.10547,3.04883 -1.99453,0.86937 -1.77899,3.76554 0.32226,4.33008 5.85668,1.57412 11.04178,3.95442 15.59961,7.13867 0.005,0.004 0.0104,0.008 0.0156,0.0117 7.41528,5.07895 12.9934,11.51463 16.84375,19.41797 0.004,0.007 0.008,0.0143 0.0117,0.0215 3.96013,7.92027 5.94531,16.63693 5.94531,26.26172 0,14.04737 -3.0841,25.73866 -9.16016,35.25781 -6.7e-4,0.002 -10e-4,0.004 -0.002,0.006 -5.99724,9.45327 -14.43308,16.64024 -25.49805,21.66211 -0.003,0.001 -0.005,0.003 -0.008,0.004 -11.069,4.91612 -24.16611,7.41211 -39.34961,7.41211 H 114.43359 95.552734 86.113281 Z m 30.62109,25.07031 c -1.27005,-3e-4 -2.30001,1.02878 -2.30078,2.29883 v 73.30273 c -3e-4,1.27081 1.02997,2.30108 2.30078,2.30078 h 8.41016 37.60352 c 9.03795,0 17.04568,-1.52416 23.95507,-4.64453 6.89815,-3.11529 12.36018,-7.64955 16.20313,-13.52344 3.96967,-6.01122 5.93555,-13.17014 5.93555,-21.25976 0,-8.74841 -1.6947,-16.06218 -5.25391,-21.81446 -3.45071,-5.85326 -8.86514,-10.1292 -15.91406,-12.70703 -6.92758,-2.67758 -15.54104,-3.95312 -25.87696,-3.95312 z m 2.30079,4.59961 h 42.76171 c 9.9632,0 18.05295,1.25802 24.23828,3.65234 0.0136,0.005 0.0273,0.0105 0.041,0.0156 6.25987,2.28535 10.66924,5.82754 13.5625,10.74609 0.009,0.0157 0.018,0.0314 0.0273,0.0469 2.98976,4.82217 4.57422,11.24916 4.57422,19.41406 0,7.35392 -1.73906,13.52339 -5.17383,18.72461 -0.002,0.003 -0.004,0.007 -0.006,0.01 -3.34966,5.123 -8.03689,9.04867 -14.25196,11.85547 -6.20702,2.80317 -13.53942,4.23828 -22.06054,4.23828 h -37.60352 -6.10937 z m -2.30079,93.29687 c -1.27005,-3e-4 -2.30001,1.02878 -2.30078,2.29883 v 83.14258 c -3e-4,1.27081 1.02997,2.30108 2.30078,2.30078 h 50.29883 c 9.99226,0 18.60624,-1.7369 25.76758,-5.31445 5.2e-4,-2.6e-4 0.001,2.5e-4 0.002,0 7.22621,-3.55786 12.84765,-8.65269 16.67383,-15.17969 0.003,-0.005 0.005,-0.0104 0.008,-0.0156 3.821,-6.63055 5.70313,-14.4151 5.70313,-23.20312 0,-8.84253 -1.58649,-16.61359 -4.83789,-23.22852 -3.28113,-6.67537 -8.50709,-11.88476 -15.44727,-15.46679 -6.99698,-3.61134 -15.82475,-5.33399 -26.4414,-5.33399 h -43.63477 z m 0,0 51.72657,4.59961 c 10.07598,0.89597 18.21257,1.66384 24.33203,4.82227 6.17624,3.18774 10.57374,7.60182 13.42773,13.4082 2.8837,5.86684 4.36524,12.90575 4.36524,21.19922 0,8.1364 -1.71406,15.05504 -5.08594,20.90625 -3.36612,5.73609 -8.21153,10.1559 -14.73047,13.36523 -0.005,0.002 -0.009,0.004 -0.0137,0.006 -6.37561,3.18781 -14.2579,4.83594 -23.72266,4.83594 h -47.99804 z"
     id="path11"
     sodipodi:nodetypes="cccccscccscccccccssccccccsscccsscccccccccsccccscccccccccsscsccsccsccccsccsscccccccsscccsssscccsssscccscc" /><path
     d="m 96.646805,298.57905 c 1.41773,1.94938 2.48103,4.25319 3.01268,6.557 0.354425,1.2405 0.531645,2.48102 0.531645,3.54431 l 0.17721,3.54433 c 0.35443,4.60762 0.17722,9.56966 -1.240505,14.17729 -1.41773,4.60762 -3.367109,8.8608 -5.670919,12.93678 0.70887,-2.30381 1.59495,-4.43041 2.30381,-6.557 0.70887,-2.1266 1.417729,-4.43041 1.949379,-6.73421 1.0633,-4.43041 1.0633,-9.03803 0.88608,-13.64565 l -0.17722,-3.54432 c 0,-1.0633 -0.17721,-2.30381 -0.35443,-3.36711 -0.53165,-2.12659 -1.41773,-4.25318 -2.481019,-6.20256 -1.24052,-1.94938 -2.65824,-3.72153 -4.4304,-5.31648 -1.59495,-1.59494 -3.54433,-3.01267 -5.67092,-4.07597 4.4304,1.77216 8.50637,4.60762 11.164609,8.68359 z"
     id="path3-3"
     style="fill:#4f06b0;fill-opacity:1;stroke-width:0.999994" /><path
     d="m 88.44998,307.89462 c 1.154967,0.97469 2.021194,2.12659 2.454307,3.27849 0.288736,0.62025 0.43311,1.24051 0.43311,1.77216 l 0.144366,1.77216 c 0.288739,2.30381 0.144374,4.78483 -1.010589,7.08865 -1.154967,2.30381 -2.743046,4.4304 -4.619866,6.46839 0.577488,-1.15191 1.299341,-2.21521 1.87682,-3.2785 0.577487,-1.0633 1.154966,-2.21521 1.588079,-3.36711 0.866227,-2.2152 0.866227,-4.51901 0.721853,-6.82282 l -0.144373,-1.77216 c 0,-0.53165 -0.144366,-1.15191 -0.28874,-1.68356 -0.433114,-1.06329 -1.154967,-2.12659 -2.021185,-3.10128 -1.010601,-0.97469 -2.165559,-1.86076 -3.609265,-2.65824 -1.299341,-0.79747 -2.887421,-1.50633 -4.619867,-2.03798 3.609266,0.88608 6.929792,2.30381 9.09535,4.3418 z"
     id="path16"
     style="fill:#4f06b0;fill-opacity:1;stroke-width:0.999994" /></svg>
